<svg width="90.4mm" height="90.4mm" 
                       viewBox="-0.2 -0.2 90.4 90.4" 
                       xmlns="http://www.w3.org/2000/svg">
                  <style>
                    .cut { fill: black; stroke: none; }
                    .mark { fill: none; stroke: blue; stroke-width: 0.1; }
                    .text { fill: red; font-family: Arial; font-size: 3px; }
                    .marker { fill: black; stroke: none; }
                    .marker-bg { fill: white; stroke: black; stroke-width: 0.1; }
                  </style><rect x="0.000" y="0.000" 
                               width="40.000" height="40.000" 
                               class="mark" /><rect x="-0.200" y="-0.200" 
                               width="40.400" height="7.200" 
                               class="cut" /><rect x="-0.200" y="6.600" 
                               width="7.200" height="33.600" 
                               class="cut" /><rect x="13.268" y="6.668" 
                               width="6.864" height="6.864" 
                               class="cut" /><rect x="33.200" y="6.600" 
                               width="7.000" height="33.600" 
                               class="cut" /><rect x="6.600" y="13.200" 
                               width="7.000" height="27.000" 
                               class="cut" /><rect x="19.864" y="13.264" 
                               width="7.072" height="6.872" 
                               class="cut" /><rect x="13.200" y="19.800" 
                               width="7.000" height="20.400" 
                               class="cut" /><rect x="26.600" y="26.600" 
                               width="7.000" height="13.600" 
                               class="cut" /><rect x="19.864" y="33.264" 
                               width="7.072" height="6.872" 
                               class="cut" /><rect x="50.000" y="0.000" 
                               width="40.000" height="40.000" 
                               class="mark" /><rect x="49.800" y="-0.200" 
                               width="40.400" height="13.800" 
                               class="cut" /><rect x="49.800" y="13.200" 
                               width="7.200" height="27.000" 
                               class="cut" /><rect x="83.200" y="13.200" 
                               width="7.000" height="27.000" 
                               class="cut" /><rect x="63.200" y="19.800" 
                               width="13.800" height="7.200" 
                               class="cut" /><rect x="63.200" y="26.600" 
                               width="7.000" height="13.600" 
                               class="cut" /><rect x="76.600" y="26.600" 
                               width="7.000" height="13.600" 
                               class="cut" /><rect x="56.668" y="33.268" 
                               width="6.864" height="6.864" 
                               class="cut" /><rect x="69.864" y="33.264" 
                               width="7.072" height="6.872" 
                               class="cut" /><rect x="0.000" y="50.000" 
                               width="40.000" height="40.000" 
                               class="mark" /><rect x="-0.200" y="49.800" 
                               width="40.400" height="7.200" 
                               class="cut" /><rect x="-0.200" y="56.600" 
                               width="20.400" height="20.400" 
                               class="cut" /><rect x="33.200" y="56.600" 
                               width="7.000" height="33.600" 
                               class="cut" /><rect x="26.664" y="69.864" 
                               width="6.872" height="7.072" 
                               class="cut" /><rect x="-0.200" y="76.600" 
                               width="7.200" height="13.600" 
                               class="cut" /><rect x="19.800" y="76.600" 
                               width="7.200" height="13.600" 
                               class="cut" /><rect x="6.600" y="83.200" 
                               width="13.600" height="7.000" 
                               class="cut" /><rect x="26.668" y="83.268" 
                               width="6.864" height="6.864" 
                               class="cut" /><rect x="50.000" y="50.000" 
                               width="40.000" height="40.000" 
                               class="mark" /><rect x="49.800" y="49.800" 
                               width="40.400" height="7.200" 
                               class="cut" /><rect x="49.800" y="56.600" 
                               width="7.200" height="33.600" 
                               class="cut" /><rect x="63.200" y="56.600" 
                               width="13.800" height="13.600" 
                               class="cut" /><rect x="83.200" y="56.600" 
                               width="7.000" height="33.600" 
                               class="cut" /><rect x="56.600" y="69.800" 
                               width="7.000" height="20.400" 
                               class="cut" /><rect x="69.800" y="69.800" 
                               width="13.800" height="7.200" 
                               class="cut" /><rect x="76.600" y="76.600" 
                               width="7.000" height="13.600" 
                               class="cut" /><rect x="63.200" y="83.200" 
                               width="13.800" height="7.000" 
                               class="cut" /></svg>