solid landing_pad
  facet normal 0.000000 0.000000 -1.000000
    outer loop
      vertex 0.000000 0.000000 0.000000
      vertex 300.000000 300.000000 0.000000
      vertex 300.000000 0.000000 0.000000
    endloop
  endfacet
  facet normal 0.000000 0.000000 -1.000000
    outer loop
      vertex 0.000000 0.000000 0.000000
      vertex 0.000000 300.000000 0.000000
      vertex 300.000000 300.000000 0.000000
    endloop
  endfacet
  facet normal 0.000000 0.000000 1.000000
    outer loop
      vertex 0.000000 0.000000 5.000000
      vertex 300.000000 0.000000 5.000000
      vertex 300.000000 300.000000 5.000000
    endloop
  endfacet
  facet normal 0.000000 0.000000 1.000000
    outer loop
      vertex 0.000000 0.000000 5.000000
      vertex 300.000000 300.000000 5.000000
      vertex 0.000000 300.000000 5.000000
    endloop
  endfacet
  facet normal 0.000000 -1.000000 0.000000
    outer loop
      vertex 0.000000 0.000000 0.000000
      vertex 300.000000 0.000000 0.000000
      vertex 300.000000 0.000000 5.000000
    endloop
  endfacet
  facet normal 0.000000 -1.000000 0.000000
    outer loop
      vertex 0.000000 0.000000 0.000000
      vertex 300.000000 0.000000 5.000000
      vertex 0.000000 0.000000 5.000000
    endloop
  endfacet
  facet normal 0.000000 1.000000 0.000000
    outer loop
      vertex 300.000000 300.000000 0.000000
      vertex 0.000000 300.000000 0.000000
      vertex 0.000000 300.000000 5.000000
    endloop
  endfacet
  facet normal 0.000000 1.000000 0.000000
    outer loop
      vertex 300.000000 300.000000 0.000000
      vertex 0.000000 300.000000 5.000000
      vertex 300.000000 300.000000 5.000000
    endloop
  endfacet
  facet normal -1.000000 0.000000 0.000000
    outer loop
      vertex 0.000000 0.000000 0.000000
      vertex 0.000000 0.000000 5.000000
      vertex 0.000000 300.000000 5.000000
    endloop
  endfacet
  facet normal -1.000000 0.000000 0.000000
    outer loop
      vertex 0.000000 0.000000 0.000000
      vertex 0.000000 300.000000 5.000000
      vertex 0.000000 300.000000 0.000000
    endloop
  endfacet
  facet normal 1.000000 0.000000 0.000000
    outer loop
      vertex 300.000000 0.000000 0.000000
      vertex 300.000000 300.000000 0.000000
      vertex 300.000000 300.000000 5.000000
    endloop
  endfacet
  facet normal 1.000000 0.000000 0.000000
    outer loop
      vertex 300.000000 0.000000 0.000000
      vertex 300.000000 300.000000 5.000000
      vertex 300.000000 0.000000 5.000000
    endloop
  endfacet
  facet normal 0 0 1
    outer loop
      vertex 50.000000 50.000000 5.500000
      vertex 100.000000 50.000000 5.500000
      vertex 100.000000 100.000000 5.500000
    endloop
  endfacet
  facet normal 0 0 1
    outer loop
      vertex 200.000000 50.000000 5.500000
      vertex 250.000000 50.000000 5.500000
      vertex 250.000000 100.000000 5.500000
    endloop
  endfacet
  facet normal 0 0 1
    outer loop
      vertex 50.000000 200.000000 5.500000
      vertex 100.000000 200.000000 5.500000
      vertex 100.000000 250.000000 5.500000
    endloop
  endfacet
  facet normal 0 0 1
    outer loop
      vertex 200.000000 200.000000 5.500000
      vertex 250.000000 200.000000 5.500000
      vertex 250.000000 250.000000 5.500000
    endloop
  endfacet
endsolid landing_pad
